<svg xmlns="http://www.w3.org/2000/svg" xmlns:xlink="http://www.w3.org/1999/xlink" width="1080" zoomAndPan="magnify" viewBox="0 0 810 809.999993" height="1080" preserveAspectRatio="xMidYMid meet" version="1.0"><path stroke-linecap="round" transform="matrix(13.499999, 0, 0, 13.499999, 0.0000035, 0.00002)" fill="#FFFFFF" stroke-linejoin="round" d="M 2 0.999999 L 58.000003 0.999999 C 58.065686 0.999999 58.13079 1.006364 58.195026 1.019096 C 58.259551 1.032117 58.322051 1.050924 58.382815 1.076098 C 58.44329 1.101272 58.500871 1.131943 58.555558 1.168401 C 58.610246 1.205149 58.660593 1.246526 58.707179 1.292823 C 58.753475 1.339408 58.794852 1.389756 58.8316 1.444443 C 58.868058 1.499131 58.89873 1.556712 58.923903 1.617186 C 58.949077 1.67795 58.967885 1.74045 58.980905 1.804975 C 58.993637 1.869212 59.000003 1.934316 59.000003 1.999999 L 59.000003 58.000001 C 59.000003 58.065684 58.993637 58.130788 58.980905 58.195025 C 58.967885 58.25955 58.949077 58.32205 58.923903 58.382814 C 58.89873 58.443288 58.868058 58.50087 58.8316 58.555557 C 58.794852 58.610245 58.753475 58.660592 58.707179 58.707177 C 58.660593 58.753474 58.610246 58.794851 58.555558 58.831599 C 58.500871 58.868057 58.44329 58.898728 58.382815 58.923902 C 58.322051 58.949076 58.259551 58.967883 58.195026 58.980904 C 58.13079 58.993636 58.065686 59.000001 58.000003 59.000001 L 2 59.000001 C 1.934317 59.000001 1.869213 58.993636 1.804977 58.980904 C 1.740451 58.967883 1.677951 58.949076 1.617187 58.923902 C 1.556713 58.898728 1.499132 58.868057 1.444444 58.831599 C 1.389757 58.794851 1.33941 58.753474 1.292824 58.707177 C 1.246528 58.660592 1.20515 58.610245 1.168403 58.555557 C 1.131944 58.50087 1.101273 58.443288 1.076099 58.382814 C 1.050926 58.32205 1.032118 58.25955 1.019097 58.195025 C 1.006366 58.130788 1 58.065684 1 58.000001 L 1 1.999999 C 1 1.934316 1.006366 1.869212 1.019097 1.804975 C 1.032118 1.74045 1.050926 1.67795 1.076099 1.617186 C 1.101273 1.556712 1.131944 1.499131 1.168403 1.444443 C 1.20515 1.389756 1.246528 1.339408 1.292824 1.292823 C 1.33941 1.246526 1.389757 1.205149 1.444444 1.168401 C 1.499132 1.131943 1.556713 1.101272 1.617187 1.076098 C 1.677951 1.050924 1.740451 1.032117 1.804977 1.019096 C 1.869213 1.006364 1.934317 0.999999 2 0.999999 Z M 2 0.999999 " stroke="#000000" stroke-width="2" stroke-opacity="1" stroke-miterlimit="4"/><path stroke-linecap="round" transform="matrix(13.499999, 0, 0, 13.499999, 0.0000035, 0.00002)" fill="none" stroke-linejoin="round" d="M 38.500002 30 C 38.500002 30.139178 38.496529 30.278067 38.489874 30.416956 C 38.48293 30.556134 38.472803 30.694734 38.459203 30.833044 C 38.445314 30.971644 38.428532 31.109664 38.407988 31.247107 C 38.387733 31.384838 38.363717 31.521701 38.336807 31.658276 C 38.309608 31.79456 38.278937 31.930266 38.245372 32.065394 C 38.211518 32.200232 38.174481 32.334202 38.133972 32.467303 C 38.093752 32.600405 38.05006 32.732639 38.003185 32.863426 C 37.95631 32.994502 37.906252 33.124421 37.853011 33.252894 C 37.79977 33.381366 37.743347 33.508391 37.684029 33.634259 C 37.624423 33.759838 37.561923 33.884259 37.49624 34.006945 C 37.430847 34.12963 37.36227 34.250579 37.2908 34.369792 C 37.219041 34.489294 37.144678 34.606771 37.067421 34.722222 C 36.990164 34.837963 36.910013 34.951679 36.827259 35.063368 C 36.744504 35.175058 36.658856 35.284723 36.570603 35.392361 C 36.482351 35.5 36.391495 35.605035 36.298034 35.708334 C 36.204573 35.811343 36.108798 35.912037 36.010418 36.010417 C 35.912039 36.108797 35.811344 36.204572 35.708335 36.298033 C 35.605036 36.391493 35.500002 36.48235 35.392363 36.570602 C 35.284724 36.658855 35.175059 36.744503 35.06337 36.827257 C 34.95168 36.910012 34.837964 36.990162 34.722224 37.067419 C 34.606772 37.144676 34.489295 37.21904 34.369793 37.290799 C 34.25058 37.362269 34.129631 37.430845 34.006946 37.496239 C 33.884261 37.561922 33.759839 37.624422 33.634261 37.684028 C 33.508393 37.743345 33.381367 37.799769 33.252895 37.85301 C 33.124423 37.90625 32.994504 37.956308 32.863427 38.003183 C 32.73264 38.050058 32.600406 38.09375 32.467305 38.13397 C 32.334203 38.17448 32.200233 38.211517 32.065395 38.245371 C 31.930268 38.278936 31.794562 38.309607 31.658277 38.336806 C 31.521703 38.363716 31.384839 38.387732 31.247108 38.407987 C 31.109666 38.428531 30.971645 38.445313 30.833045 38.459202 C 30.694735 38.472801 30.556136 38.482929 30.416957 38.489873 C 30.278068 38.496528 30.139179 38.5 30.000001 38.5 C 29.860823 38.5 29.721934 38.496528 29.583045 38.489873 C 29.443867 38.482929 29.305267 38.472801 29.166957 38.459202 C 29.028358 38.445313 28.890337 38.428531 28.752895 38.407987 C 28.615163 38.387732 28.4783 38.363716 28.341726 38.336806 C 28.205152 38.309607 28.069735 38.278936 27.934608 38.245371 C 27.79977 38.211517 27.6658 38.17448 27.532698 38.13397 C 27.399596 38.09375 27.267362 38.050058 27.136575 38.003183 C 27.005499 37.956308 26.87558 37.90625 26.747108 37.85301 C 26.618635 37.799769 26.49161 37.743345 26.365742 37.684028 C 26.240163 37.624422 26.115742 37.561922 25.993057 37.496239 C 25.870371 37.430845 25.749422 37.362269 25.630209 37.290799 C 25.510707 37.21904 25.39323 37.144676 25.277779 37.067419 C 25.162038 36.990162 25.048323 36.910012 24.936633 36.827257 C 24.824943 36.744503 24.715279 36.658855 24.60764 36.570602 C 24.500001 36.48235 24.394677 36.391493 24.291668 36.298033 C 24.188658 36.204572 24.087964 36.108797 23.989584 36.010417 C 23.891205 35.912037 23.795429 35.811343 23.701969 35.708334 C 23.608508 35.605035 23.517651 35.5 23.429399 35.392361 C 23.341147 35.284723 23.255499 35.175058 23.172744 35.063368 C 23.089989 34.951679 23.009839 34.837963 22.932582 34.722222 C 22.855325 34.606771 22.780962 34.489294 22.709202 34.369792 C 22.637732 34.250579 22.569156 34.12963 22.503762 34.006945 C 22.43808 33.884259 22.37558 33.759838 22.315973 33.634259 C 22.256656 33.508391 22.200232 33.381366 22.146992 33.252894 C 22.093751 33.124421 22.043693 32.994502 21.996818 32.863426 C 21.949943 32.732639 21.906251 32.600405 21.866031 32.467303 C 21.825522 32.334202 21.788485 32.200232 21.75463 32.065394 C 21.721066 31.930266 21.690394 31.79456 21.663195 31.658276 C 21.636286 31.521701 21.612269 31.384838 21.592015 31.247107 C 21.571471 31.109664 21.554688 30.971644 21.540799 30.833044 C 21.5272 30.694734 21.517073 30.556134 21.510128 30.416956 C 21.503473 30.278067 21.500001 30.139178 21.500001 30 C 21.500001 29.860822 21.503473 29.721933 21.510128 29.583044 C 21.517073 29.443866 21.5272 29.305266 21.540799 29.166956 C 21.554688 29.028356 21.571471 28.890336 21.592015 28.752893 C 21.612269 28.615162 21.636286 28.478299 21.663195 28.341724 C 21.690394 28.20544 21.721066 28.069734 21.75463 27.934606 C 21.788485 27.799768 21.825522 27.665799 21.866031 27.532697 C 21.906251 27.399595 21.949943 27.267361 21.996818 27.136574 C 22.043693 27.005498 22.093751 26.875579 22.146992 26.747106 C 22.200232 26.618634 22.256656 26.491609 22.315973 26.365741 C 22.37558 26.240162 22.43808 26.115741 22.503762 25.993055 C 22.569156 25.87037 22.637732 25.749421 22.709202 25.630208 C 22.780962 25.510706 22.855325 25.393229 22.932582 25.277778 C 23.009839 25.162037 23.089989 25.048322 23.172744 24.936632 C 23.255499 24.824942 23.341147 24.715278 23.429399 24.607639 C 23.517651 24.5 23.608508 24.394965 23.701969 24.291666 C 23.795429 24.188657 23.891205 24.087963 23.989584 23.989583 C 24.087964 23.891203 24.188658 23.795428 24.291668 23.701967 C 24.394677 23.608507 24.500001 23.51765 24.60764 23.429398 C 24.715279 23.341146 24.824943 23.255497 24.936633 23.172743 C 25.048323 23.089988 25.162038 23.009838 25.277779 22.932581 C 25.39323 22.855324 25.510707 22.78096 25.630209 22.709201 C 25.749422 22.637731 25.870371 22.569155 25.993057 22.503761 C 26.115742 22.438078 26.240163 22.375578 26.365742 22.315972 C 26.49161 22.256655 26.618635 22.200231 26.747108 22.14699 C 26.87558 22.09375 27.005499 22.043692 27.136575 21.996817 C 27.267362 21.949942 27.399596 21.90625 27.532698 21.86603 C 27.6658 21.82552 27.79977 21.788483 27.934608 21.754629 C 28.069735 21.721064 28.205152 21.690393 28.341726 21.663194 C 28.4783 21.636284 28.615163 21.612268 28.752895 21.592013 C 28.890337 21.57147 29.028358 21.554687 29.166957 21.540798 C 29.305267 21.527199 29.443867 21.517071 29.583045 21.510127 C 29.721934 21.503472 29.860823 21.5 30.000001 21.5 C 30.139179 21.5 30.278068 21.503472 30.416957 21.510127 C 30.556136 21.517071 30.694735 21.527199 30.833045 21.540798 C 30.971645 21.554687 31.109666 21.57147 31.247108 21.592013 C 31.384839 21.612268 31.521703 21.636284 31.658277 21.663194 C 31.794562 21.690393 31.930268 21.721064 32.065395 21.754629 C 32.200233 21.788483 32.334203 21.82552 32.467305 21.86603 C 32.600406 21.90625 32.73264 21.949942 32.863427 21.996817 C 32.994504 22.043692 33.124423 22.09375 33.252895 22.14699 C 33.381367 22.200231 33.508393 22.256655 33.634261 22.315972 C 33.759839 22.375578 33.884261 22.438078 34.006946 22.503761 C 34.129631 22.569155 34.25058 22.637731 34.369793 22.709201 C 34.489295 22.78096 34.606772 22.855324 34.722224 22.932581 C 34.837964 23.009838 34.95168 23.089988 35.06337 23.172743 C 35.175059 23.255497 35.284724 23.341146 35.392363 23.429398 C 35.500002 23.51765 35.605036 23.608507 35.708335 23.701967 C 35.811344 23.795428 35.912039 23.891203 36.010418 23.989583 C 36.108798 24.087963 36.204573 24.188657 36.298034 24.291666 C 36.391495 24.394676 36.482351 24.5 36.570603 24.607639 C 36.658856 24.715278 36.744504 24.824942 36.827259 24.936632 C 36.910013 25.048322 36.990164 25.162037 37.067421 25.277778 C 37.144678 25.393229 37.219041 25.510706 37.2908 25.630208 C 37.36227 25.749421 37.430847 25.87037 37.49624 25.993055 C 37.561923 26.115741 37.624423 26.240162 37.684029 26.365741 C 37.743347 26.491609 37.79977 26.618634 37.853011 26.747106 C 37.906252 26.875579 37.95631 27.005498 38.003185 27.136574 C 38.05006 27.267361 38.093752 27.399595 38.133972 27.532697 C 38.174481 27.665799 38.211518 27.799768 38.245372 27.934606 C 38.278937 28.069734 38.309608 28.20544 38.336807 28.341724 C 38.363717 28.478299 38.387733 28.615162 38.407988 28.752893 C 38.428532 28.890336 38.445314 29.028356 38.459203 29.166956 C 38.472803 29.305266 38.48293 29.443866 38.489874 29.583044 C 38.496529 29.721933 38.500002 29.860822 38.500002 30 Z M 38.500002 30 " stroke="#000000" stroke-width="2" stroke-opacity="1" stroke-miterlimit="4"/><path stroke-linecap="round" transform="matrix(13.499999, 0, 0, 13.499999, 0.0000035, 0.00002)" fill="none" stroke-linejoin="round" d="M 34.500001 30 C 34.500001 30.14728 34.492768 30.294271 34.4783 30.440972 C 34.463832 30.587674 34.44242 30.733218 34.413485 30.877894 C 34.384839 31.02257 34.34896 31.16522 34.306136 31.306134 C 34.263312 31.447338 34.213832 31.585938 34.157409 31.721933 C 34.100985 31.858218 34.038196 31.99132 33.968751 32.121239 C 33.899307 32.251158 33.823497 32.377604 33.74161 32.5 C 33.659724 32.622685 33.57205 32.740741 33.478589 32.854746 C 33.385129 32.96875 33.28617 33.077836 33.182004 33.182003 C 33.077837 33.286169 32.968751 33.385128 32.854747 33.478588 C 32.740742 33.572049 32.622687 33.659722 32.500001 33.741609 C 32.377606 33.823496 32.251159 33.899306 32.12124 33.96875 C 31.991321 34.038195 31.858219 34.100984 31.721934 34.157408 C 31.585939 34.213831 31.447339 34.26331 31.306136 34.306135 C 31.165221 34.348959 31.022571 34.384838 30.877895 34.413484 C 30.733219 34.442419 30.587675 34.463831 30.440973 34.478299 C 30.294272 34.492766 30.147281 34.5 30.000001 34.5 C 29.852721 34.5 29.70573 34.492766 29.559029 34.478299 C 29.412328 34.463831 29.266784 34.442419 29.122108 34.413484 C 28.977432 34.384838 28.834781 34.348959 28.693578 34.306135 C 28.552663 34.26331 28.414064 34.213831 28.277779 34.157408 C 28.141784 34.100984 28.008682 34.038195 27.878763 33.96875 C 27.748844 33.899306 27.622397 33.823496 27.500001 33.741609 C 27.377316 33.659722 27.25926 33.572049 27.145256 33.478588 C 27.031251 33.385128 26.922165 33.286169 26.817999 33.182003 C 26.713832 33.077836 26.614874 32.96875 26.521413 32.854746 C 26.427952 32.740741 26.340279 32.622685 26.258392 32.5 C 26.176506 32.377604 26.100695 32.251158 26.031251 32.121239 C 25.961807 31.99132 25.899017 31.858218 25.842594 31.721933 C 25.78617 31.585938 25.736691 31.447338 25.693867 31.306424 C 25.651043 31.16522 25.615163 31.02257 25.586517 30.877894 C 25.557582 30.733218 25.53617 30.587674 25.521702 30.440972 C 25.507235 30.294271 25.500001 30.14728 25.500001 30 C 25.500001 29.85272 25.507235 29.705729 25.521702 29.559028 C 25.53617 29.412326 25.557582 29.266782 25.586517 29.122106 C 25.615163 28.977431 25.651043 28.83478 25.693867 28.693576 C 25.736691 28.552662 25.78617 28.414062 25.842594 28.277778 C 25.899017 28.141782 25.961807 28.00868 26.031251 27.878761 C 26.100695 27.748843 26.176506 27.622396 26.258392 27.5 C 26.340279 27.377315 26.427952 27.259259 26.521413 27.145255 C 26.614874 27.03125 26.713832 26.922164 26.817999 26.817998 C 26.922165 26.713831 27.031251 26.614873 27.145256 26.521412 C 27.25926 26.427951 27.377316 26.340278 27.500001 26.258391 C 27.622397 26.176504 27.748844 26.100694 27.878763 26.03125 C 28.008682 25.961805 28.141784 25.899016 28.277779 25.842592 C 28.414064 25.786169 28.552663 25.73669 28.693578 25.693866 C 28.834781 25.651041 28.977432 25.615162 29.122108 25.586516 C 29.266784 25.557581 29.412328 25.536169 29.559029 25.521701 C 29.70573 25.507234 29.852721 25.5 30.000001 25.5 C 30.147281 25.5 30.294272 25.507234 30.440973 25.521701 C 30.587675 25.536169 30.733219 25.557581 30.877895 25.586516 C 31.022571 25.615162 31.165221 25.651041 31.306136 25.693866 C 31.447339 25.73669 31.585939 25.786169 31.721934 25.842592 C 31.858219 25.899016 31.991321 25.961805 32.12124 26.03125 C 32.251159 26.100694 32.377606 26.176504 32.500001 26.258391 C 32.622687 26.340278 32.740742 26.427951 32.854747 26.521412 C 32.968751 26.614873 33.077837 26.713831 33.182004 26.817998 C 33.28617 26.922164 33.385129 27.03125 33.478589 27.145255 C 33.57205 27.259259 33.659724 27.377315 33.74161 27.5 C 33.823497 27.622396 33.899307 27.748843 33.968751 27.878761 C 34.038196 28.00868 34.100985 28.141782 34.157409 28.277778 C 34.213832 28.414062 34.263312 28.552662 34.306136 28.693576 C 34.34896 28.83478 34.384839 28.977431 34.413485 29.122106 C 34.44242 29.266782 34.463832 29.412326 34.4783 29.559028 C 34.492768 29.705729 34.500001 29.85272 34.500001 30 Z M 34.500001 30 " stroke="#000000" stroke-width="2" stroke-opacity="1" stroke-miterlimit="4"/><path stroke-linecap="round" transform="matrix(13.499999, 0, 0, 13.499999, 0.0000035, 0.00002)" fill="none" stroke-linejoin="round" d="M 30.000001 43.000001 C 30.065395 43.000001 30.130788 43.003184 30.195892 43.009549 C 30.261286 43.015915 30.325811 43.025753 30.390048 43.038484 C 30.454284 43.051216 30.517941 43.06713 30.580441 43.086228 C 30.64323 43.105035 30.704862 43.127316 30.765337 43.1522 C 30.825811 43.177373 30.885129 43.205151 30.94271 43.236112 C 31.00058 43.267072 31.056714 43.300637 31.111112 43.337096 C 31.165511 43.373554 31.218173 43.412327 31.268809 43.453994 C 31.319446 43.49566 31.367768 43.539353 31.414353 43.585649 C 31.460649 43.632235 31.504342 43.680556 31.546008 43.731193 C 31.587675 43.781829 31.626448 43.834491 31.662906 43.88889 C 31.699365 43.943288 31.73293 43.999422 31.76389 44.057292 C 31.794851 44.114873 31.822629 44.174191 31.847802 44.234665 C 31.872687 44.29514 31.894967 44.356772 31.913774 44.419561 C 31.932872 44.482061 31.948786 44.545718 31.961518 44.609954 C 31.974249 44.674191 31.984087 44.738716 31.990453 44.80411 C 31.996818 44.869214 32.000001 44.934607 32.000001 45.000001 L 32.000001 53.000001 C 32.000001 53.065395 31.996818 53.130788 31.990453 53.195892 C 31.984087 53.261286 31.974249 53.325811 31.961518 53.390048 C 31.948786 53.454284 31.932872 53.517941 31.913774 53.580441 C 31.894967 53.64323 31.872687 53.704862 31.847802 53.765337 C 31.822629 53.825811 31.794851 53.885129 31.76389 53.94271 C 31.73293 54.00058 31.699365 54.056714 31.662906 54.111112 C 31.626448 54.165511 31.587675 54.218173 31.546008 54.268809 C 31.504342 54.319446 31.460649 54.367767 31.414353 54.414064 C 31.367768 54.460649 31.319446 54.504342 31.268809 54.546008 C 31.218173 54.587675 31.165511 54.626448 31.111112 54.662906 C 31.056714 54.699365 31.00058 54.73293 30.94271 54.76389 C 30.885129 54.794851 30.825811 54.822629 30.765337 54.847802 C 30.704862 54.872686 30.64323 54.894967 30.580441 54.913774 C 30.517941 54.932872 30.454284 54.948786 30.390048 54.961517 C 30.325811 54.974249 30.261286 54.984087 30.195892 54.990453 C 30.130788 54.996818 30.065395 55.000001 30.000001 55.000001 C 29.934608 55.000001 29.869214 54.996818 29.80411 54.990453 C 29.738717 54.984087 29.674191 54.974249 29.609955 54.961517 C 29.545719 54.948786 29.482061 54.932872 29.419561 54.913774 C 29.356772 54.894967 29.29514 54.872686 29.234666 54.847802 C 29.174191 54.822629 29.114874 54.794851 29.057293 54.76389 C 28.999422 54.73293 28.943288 54.699365 28.88889 54.662906 C 28.834492 54.626448 28.78183 54.587675 28.731193 54.546008 C 28.680557 54.504342 28.632235 54.460649 28.585649 54.414064 C 28.539353 54.367767 28.495661 54.319446 28.453994 54.268809 C 28.412328 54.218173 28.373554 54.165511 28.337096 54.111112 C 28.300638 54.056714 28.267073 54.00058 28.236112 53.94271 C 28.205152 53.885129 28.177374 53.825811 28.1522 53.765337 C 28.127027 53.704862 28.105036 53.64323 28.086228 53.580441 C 28.067131 53.517941 28.051216 53.454284 28.038485 53.390048 C 28.025753 53.325811 28.015916 53.261286 28.00955 53.195892 C 28.003184 53.130788 28.000001 53.065395 28.000001 53.000001 L 28.000001 45.000001 C 28.000001 44.934607 28.003184 44.869214 28.00955 44.80411 C 28.015916 44.738716 28.025753 44.674191 28.038485 44.609954 C 28.051216 44.545718 28.067131 44.482061 28.086228 44.419561 C 28.105036 44.356772 28.127027 44.29514 28.1522 44.234665 C 28.177374 44.174191 28.205152 44.114873 28.236112 44.057292 C 28.267073 43.999422 28.300638 43.943288 28.337096 43.88889 C 28.373554 43.834491 28.412328 43.781829 28.453994 43.731193 C 28.495661 43.680556 28.539353 43.632235 28.585649 43.585649 C 28.632235 43.539353 28.680557 43.49566 28.731193 43.453994 C 28.78183 43.412327 28.834492 43.373554 28.88889 43.337096 C 28.943288 43.300637 28.999422 43.267072 29.057293 43.236112 C 29.114874 43.205151 29.174191 43.177373 29.234666 43.1522 C 29.29514 43.127316 29.356772 43.105035 29.419561 43.086228 C 29.482061 43.06713 29.545719 43.051216 29.609955 43.038484 C 29.674191 43.025753 29.738717 43.015915 29.80411 43.009549 C 29.869214 43.003184 29.934608 43.000001 30.000001 43.000001 Z M 30.000001 43.000001 " stroke="#000000" stroke-width="2" stroke-opacity="1" stroke-miterlimit="4"/><path stroke-linecap="round" transform="matrix(13.499999, 0, 0, 13.499999, 0.0000035, 0.00002)" fill="none" stroke-linejoin="round" d="M 6 4.999999 L 22.000001 4.999999 C 22.065684 4.999999 22.130788 5.006365 22.195024 5.019096 C 22.259549 5.032117 22.322049 5.050925 22.382813 5.076098 C 22.443288 5.101272 22.500869 5.131943 22.555556 5.168402 C 22.610244 5.205149 22.660591 5.246527 22.707177 5.292823 C 22.753473 5.339409 22.79485 5.389756 22.831598 5.444443 C 22.868056 5.499131 22.898728 5.556712 22.923901 5.617186 C 22.949075 5.67795 22.967883 5.74045 22.980904 5.804976 C 22.993635 5.869212 23.000001 5.934316 23.000001 5.999999 L 23.000001 14.999999 C 23.000001 15.065682 22.993635 15.130786 22.980904 15.195022 C 22.967883 15.259548 22.949075 15.322048 22.923901 15.382812 C 22.898728 15.443286 22.868056 15.500867 22.831598 15.555555 C 22.79485 15.610242 22.753473 15.66059 22.707177 15.707175 C 22.660591 15.753472 22.610244 15.794849 22.555556 15.831597 C 22.500869 15.868055 22.443288 15.898726 22.382813 15.9239 C 22.322049 15.949073 22.259549 15.967881 22.195024 15.980902 C 22.130788 15.993634 22.065684 15.999999 22.000001 15.999999 L 6 15.999999 C 5.934317 15.999999 5.869213 15.993634 5.804977 15.980902 C 5.740451 15.967881 5.677951 15.949073 5.617188 15.9239 C 5.556713 15.898726 5.499132 15.868055 5.444444 15.831597 C 5.389757 15.794849 5.33941 15.753472 5.292824 15.707175 C 5.246528 15.66059 5.20515 15.610242 5.168403 15.555555 C 5.131944 15.500867 5.101273 15.443286 5.0761 15.382812 C 5.050926 15.322048 5.032118 15.259548 5.019097 15.195022 C 5.006366 15.130786 5 15.065682 5 14.999999 L 5 5.999999 C 5 5.934316 5.006366 5.869212 5.019097 5.804976 C 5.032118 5.74045 5.050926 5.67795 5.0761 5.617186 C 5.101273 5.556712 5.131944 5.499131 5.168403 5.444443 C 5.20515 5.389756 5.246528 5.339409 5.292824 5.292823 C 5.33941 5.246527 5.389757 5.205149 5.444444 5.168402 C 5.499132 5.131943 5.556713 5.101272 5.617188 5.076098 C 5.677951 5.050925 5.740451 5.032117 5.804977 5.019096 C 5.869213 5.006365 5.934317 4.999999 6 4.999999 Z M 6 4.999999 " stroke="#000000" stroke-width="2" stroke-opacity="1" stroke-miterlimit="4"/><path stroke-linecap="round" transform="matrix(13.499999, 0, 0, 13.499999, 0.0000035, 0.00002)" fill="none" stroke-linejoin="round" d="M 55.000003 4.999999 L 55.000003 5.999999 " stroke="#000000" stroke-width="2" stroke-opacity="1" stroke-miterlimit="4"/><path stroke-linecap="round" transform="matrix(13.499999, 0, 0, 13.499999, 0.0000035, 0.00002)" fill="none" stroke-linejoin="round" d="M 55.000003 9.999999 L 55.000003 9.999999 " stroke="#000000" stroke-width="2" stroke-opacity="1" stroke-miterlimit="4"/></svg>